<?xml version="1.0" encoding="UTF-8" standalone="no"?>
<svg
   xmlns:dc="http://purl.org/dc/elements/1.1/"
   xmlns:cc="http://creativecommons.org/ns#"
   xmlns:rdf="http://www.w3.org/1999/02/22-rdf-syntax-ns#"
   xmlns:svg="http://www.w3.org/2000/svg"
   xmlns="http://www.w3.org/2000/svg"
   xmlns:sodipodi="http://sodipodi.sourceforge.net/DTD/sodipodi-0.dtd"
   xmlns:inkscape="http://www.inkscape.org/namespaces/inkscape"
   inkscape:export-ydpi="96"
   inkscape:export-xdpi="96"
   inkscape:export-filename="/home/r/Garbage/wallace-logo.png"
   sodipodi:docname="logo.svg"
   inkscape:version="1.0 (4035a4fb49, 2020-05-01)"
   id="svg8"
   version="1.1"
   viewBox="0 0 512 512.00002"
   height="512"
   width="512">
  <defs
     id="defs2" />
  <sodipodi:namedview
     inkscape:guide-bbox="true"
     showguides="true"
     inkscape:snap-bbox-edge-midpoints="true"
     inkscape:bbox-nodes="false"
     inkscape:snap-bbox="true"
     inkscape:window-maximized="1"
     inkscape:window-y="0"
     inkscape:window-x="0"
     inkscape:window-height="1418"
     inkscape:window-width="2560"
     units="px"
     showgrid="false"
     inkscape:document-rotation="0"
     inkscape:current-layer="layer1"
     inkscape:document-units="px"
     inkscape:cy="221.98402"
     inkscape:cx="310.97398"
     inkscape:zoom="1.4"
     inkscape:pageshadow="2"
     inkscape:pageopacity="0.0"
     borderopacity="1.0"
     bordercolor="#666666"
     pagecolor="#ffffff"
     id="base">
    <inkscape:grid
       empspacing="4"
       spacingy="32.000001"
       spacingx="32.000001"
       id="grid833"
       type="xygrid" />
  </sodipodi:namedview>
  <metadata
     id="metadata5">
    <rdf:RDF>
      <cc:Work
         rdf:about="">
        <dc:format>image/svg+xml</dc:format>
        <dc:type
           rdf:resource="http://purl.org/dc/dcmitype/StillImage" />
        <dc:title></dc:title>
      </cc:Work>
    </rdf:RDF>
  </metadata>
  <g
     id="layer1"
     inkscape:groupmode="layer"
     inkscape:label="Layer 1">
    <path
       transform="rotate(-27.5)"
       style="fill:none;stroke:#007acc;stroke-width:128;stroke-linecap:butt;stroke-miterlimit:4;stroke-dasharray:384,128;stroke-opacity:1;stroke-linejoin:miter;stroke-dashoffset:0"
       id="path853-3"
       sodipodi:type="arc"
       sodipodi:cx="204.19525"
       sodipodi:cy="340.54544"
       sodipodi:rx="95.999992"
       sodipodi:ry="95.999992"
       sodipodi:start="0"
       sodipodi:end="4.1015237"
       sodipodi:arc-type="arc"
       sodipodi:open="true"
       d="m 300.19524,340.54544 a 95.999992,95.999992 0 0 1 -76.5871,94.01669 95.999992,95.999992 0 0 1 -107.56163,-55.99303 95.999992,95.999992 0 0 1 33.0854,-116.66225" />
    <path
       transform="rotate(-27.5)"
       sodipodi:open="true"
       sodipodi:arc-type="arc"
       sodipodi:end="4.3633231"
       sodipodi:start="6.0213859"
       sodipodi:ry="95.999992"
       sodipodi:rx="95.999992"
       sodipodi:cy="340.54541"
       sodipodi:cx="204.19522"
       sodipodi:type="arc"
       id="path853-3-6"
       style="fill:none;stroke:#33adff;stroke-width:96;stroke-linecap:butt;stroke-miterlimit:4;stroke-dasharray:288,96;stroke-opacity:1;stroke-linejoin:miter;stroke-dashoffset:0"
       d="M 296.92409,315.69878 A 95.999992,95.999992 0 0 1 231.72833,432.5124 95.999992,95.999992 0 0 1 113.06794,370.74171 95.999992,95.999992 0 0 1 171.36129,250.33493" />
    <path
       transform="rotate(-27.5)"
       style="fill:none;stroke:#99d6ff;stroke-width:64;stroke-linecap:butt;stroke-miterlimit:4;stroke-dasharray:192,64;stroke-opacity:1;stroke-linejoin:miter;stroke-dashoffset:0"
       id="path853-3-6-7"
       sodipodi:type="arc"
       sodipodi:cx="204.19522"
       sodipodi:cy="340.5452"
       sodipodi:rx="95.999992"
       sodipodi:ry="95.999992"
       sodipodi:start="5.7595865"
       sodipodi:end="4.6251225"
       sodipodi:arc-type="arc"
       sodipodi:open="true"
       d="m 287.33365,292.5452 a 95.999992,95.999992 0 0 1 -13.79149,114.38524 95.999992,95.999992 0 0 1 -113.6748,18.76779 95.999992,95.999992 0 0 1 -49.82752,-103.8817 95.999992,95.999992 0 0 1 85.78843,-76.90602" />
    <path
       transform="rotate(-27.5)"
       sodipodi:open="true"
       sodipodi:arc-type="arc"
       sodipodi:end="4.1015237"
       sodipodi:start="0"
       sodipodi:ry="191.99998"
       sodipodi:rx="191.99998"
       sodipodi:cy="345.13873"
       sodipodi:cx="108.19521"
       sodipodi:type="arc"
       id="path853"
       style="fill:none;stroke:#007acc;stroke-width:128;stroke-linecap:butt;stroke-miterlimit:4;stroke-dasharray:768,128;stroke-opacity:1;stroke-linejoin:miter;stroke-dashoffset:0"
       d="M 300.1952,345.13873 A 191.99998,191.99998 0 0 1 147.02099,533.17212 191.99998,191.99998 0 0 1 -68.102263,421.18605 191.99998,191.99998 0 0 1 -1.9314603,187.86156" />
    <path
       transform="rotate(-27.5)"
       style="fill:none;stroke:#33adff;stroke-width:96;stroke-linecap:butt;stroke-miterlimit:4;stroke-dasharray:576,96;stroke-opacity:1;stroke-linejoin:miter;stroke-dashoffset:0"
       id="path853-5"
       sodipodi:type="arc"
       sodipodi:cx="108.19521"
       sodipodi:cy="345.13889"
       sodipodi:rx="191.99998"
       sodipodi:ry="191.99998"
       sodipodi:start="6.0213859"
       sodipodi:end="4.3633231"
       sodipodi:arc-type="arc"
       sodipodi:open="true"
       d="M 293.65296,295.44563 A 191.99998,191.99998 0 0 1 163.26143,529.07286 191.99998,191.99998 0 0 1 -74.059358,405.53148 191.99998,191.99998 0 0 1 42.527346,164.71792" />
    <path
       transform="rotate(-27.5)"
       sodipodi:open="true"
       sodipodi:arc-type="arc"
       sodipodi:end="4.6251225"
       sodipodi:start="5.7595865"
       sodipodi:ry="191.99998"
       sodipodi:rx="191.99998"
       sodipodi:cy="345.13867"
       sodipodi:cx="108.19521"
       sodipodi:type="arc"
       id="path853-5-3"
       style="fill:none;stroke:#99d6ff;stroke-width:64;stroke-linecap:butt;stroke-miterlimit:4;stroke-dasharray:384,64;stroke-opacity:1;stroke-linejoin:miter;stroke-dashoffset:0"
       d="M 274.47207,249.13867 A 191.99998,191.99998 0 0 1 246.88909,477.90916 191.99998,191.99998 0 0 1 19.539491,515.44474 191.99998,191.99998 0 0 1 -80.115546,307.68134 191.99998,191.99998 0 0 1 91.461309,153.86931" />
  </g>
</svg>
